<?xml version="1.0" standalone="no"?>
<!DOCTYPE svg PUBLIC "-//W3C//DTD SVG 20010904//EN"
 "http://www.w3.org/TR/2001/REC-SVG-20010904/DTD/svg10.dtd">
<svg version="1.0" xmlns="http://www.w3.org/2000/svg"
 width="2560.000000pt" height="427.000000pt" viewBox="0 0 2560.000000 427.000000"
 preserveAspectRatio="xMidYMid meet">

<g transform="translate(0.000000,427.000000) scale(0.100000,-0.100000)"
fill="#000000" stroke="none">
<path d="M24313 3286 c-98 -19 -182 -60 -275 -135 -130 -105 -217 -213 -286
-359 -35 -73 -37 -82 -37 -179 0 -87 3 -105 21 -130 33 -44 81 -55 224 -51
182 5 215 23 344 184 124 153 488 174 563 31 9 -18 17 -55 17 -82 1 -120 -114
-236 -582 -588 -330 -249 -535 -426 -581 -501 -15 -24 -23 -73 -36 -215 -18
-198 -15 -269 15 -319 26 -42 61 -42 148 2 308 155 1214 889 1493 1210 87 100
112 150 130 269 38 245 -51 481 -260 687 -93 91 -168 136 -276 166 -82 23
-516 30 -622 10z"/>
<path d="M115 3218 c-3 -7 -4 -135 -3 -283 l3 -270 447 -3 448 -2 0 -568 c0
-686 18 -1112 50 -1197 15 -38 63 -50 205 -50 148 1 192 14 224 65 46 76 56
214 77 1058 9 372 20 680 23 683 3 4 150 14 326 23 481 25 536 34 575 98 18
30 20 50 20 220 l0 187 -53 5 c-28 3 -491 12 -1027 21 -536 8 -1050 18 -1142
21 -138 5 -169 4 -173 -8z"/>
<path d="M6585 3224 c-16 -2 -545 -10 -1175 -19 -630 -9 -1174 -18 -1209 -21
l-63 -6 3 -188 c4 -171 6 -191 25 -217 47 -64 108 -75 558 -98 160 -8 305 -15
323 -15 l33 0 0 -607 c0 -753 17 -1110 56 -1170 20 -31 107 -47 230 -40 121 6
167 24 193 76 45 89 54 220 77 1091 9 355 17 646 18 646 0 1 107 7 236 13 448
23 559 35 631 72 70 35 107 97 217 367 l51 122 -87 -2 c-48 0 -100 -2 -117 -4z"/>
<path d="M7346 3158 c-19 -40 -156 -336 -305 -657 -406 -873 -612 -1344 -672
-1541 -25 -82 -26 -80 56 -106 78 -25 354 -31 429 -10 110 32 142 78 284 406
77 177 318 708 472 1043 40 86 76 157 80 157 7 0 457 -985 462 -1012 2 -9 -72
-22 -287 -50 -159 -20 -300 -38 -312 -40 -21 -3 -16 -17 89 -260 l112 -258
435 0 c420 0 606 8 736 31 88 15 91 18 76 71 -28 97 -132 361 -261 663 -143
334 -697 1563 -712 1580 -7 8 -509 52 -616 54 -32 1 -35 -2 -66 -71z"/>
<path d="M3043 2333 c7 -1064 22 -1409 63 -1454 27 -30 95 -41 302 -46 l202
-5 0 1196 0 1196 -286 0 -287 0 6 -887z"/>
<path d="M9390 2468 c0 -887 16 -1403 46 -1557 11 -52 49 -66 189 -66 143 0
185 7 225 41 63 53 74 145 95 787 9 265 19 494 23 508 7 25 35 -1 477 -434
715 -700 831 -803 972 -870 60 -28 81 -32 173 -35 96 -4 440 13 500 24 l26 5
17 962 c10 529 20 1058 24 1175 l6 212 -286 0 -287 0 0 -47 c0 -45 -37 -1432
-42 -1592 l-3 -74 -540 533 c-877 866 -1083 1051 -1280 1146 -68 33 -72 34
-202 34 l-133 0 0 -752z"/>
<path d="M12643 2343 c8 -1092 22 -1423 65 -1465 27 -28 144 -48 277 -48 224
0 224 -1 225 458 0 249 3 324 13 327 6 2 93 9 192 15 275 16 405 29 460 45 57
16 97 53 113 105 10 30 37 261 45 370 l2 35 -360 5 c-391 5 -397 6 -439 63
-18 25 -21 45 -24 216 l-4 188 618 6 c341 4 651 11 689 17 100 14 148 35 193
84 66 72 227 395 206 416 -25 25 -264 32 -1253 37 l-1024 5 6 -879z"/>
<path d="M17610 2019 l0 -1201 138 6 c75 3 454 13 842 21 388 9 738 18 778 21
l72 6 0 234 c0 179 -3 236 -12 239 -12 3 -1141 46 -1215 45 l-33 0 0 915 0
915 -285 0 -285 0 0 -1201z"/>
<path d="M19890 2361 c0 -1000 16 -1440 54 -1479 20 -21 128 -31 386 -38 218
-7 1154 9 1316 22 l71 5 25 252 c13 139 22 255 20 260 -2 4 -298 7 -658 7
l-654 0 0 915 0 915 -280 0 -280 0 0 -859z"/>
<path d="M15177 2508 c-486 -1069 -686 -1547 -675 -1620 4 -28 28 -34 208 -47
170 -14 773 -14 863 -1 93 14 161 45 201 92 19 21 68 107 110 189 65 128 77
157 74 192 -4 61 -23 66 -250 76 -251 10 -282 24 -279 131 1 85 60 227 322
782 l74 157 17 -32 c9 -18 90 -195 181 -392 282 -618 472 -1004 540 -1099 42
-60 195 -106 354 -106 107 0 178 13 212 39 l24 19 -32 101 c-69 219 -255 647
-689 1586 l-278 600 -335 3 -336 2 -306 -672z"/>
<path d="M24873 1445 c-167 -37 -457 -222 -661 -420 -112 -109 -117 -127 -39
-149 113 -33 216 -39 772 -43 l560 -5 -3 249 c-3 311 -7 349 -35 366 -33 18
-512 21 -594 2z"/>
</g>
</svg>
